# AST/ASF file generated using VICON BodyLanguage
# -----------------------------------------------
:version 1.10
:name VICON
:units
  mass 1.0
  length 0.45
  angle deg
:documentation
   .ast/.asf automatically generated from VICON data using
   VICON BodyBuilder and BodyLanguage model FoxedUp or BRILLIANT.MOD
:root
   order TX TY TZ RX RY RZ
   axis XYZ
   position 0 0 0  
   orientation 0 0 0 
:bonedata
  begin
     id 1 
     name lhipjoint
     direction 0.645893 -0.654526 0.392961 
     length 2.38111 
     axis 0 0 0  XYZ
  end
  begin
     id 2 
     name lfemur
     direction 0.34202 -0.939693 0  
     length 6.6822  
     axis 0 0 20  XYZ
    dof rx ry rz
    limits (-160.0 20.0)
           (-70.0 70.0)
           (-60.0 70.0)
  end
  begin
     id 3 
     name ltibia
     direction 0.34202 -0.939693 0   
     length 6.93904   
     axis 0 0 20   XYZ
    dof rx
    limits (-10.0 170.0)
  end
  begin
     id 4 
     name lfoot
     direction 0.0694967 -0.190941 0.979138   
     length 2.13616   
     axis -90 7.62852e-016 20   XYZ
    dof rx rz
    limits (-45.0 90.0)
           (-70.0 20.0)
  end
  begin
     id 5 
     name ltoes
     direction 1.535e-011 -4.2202e-011 1   
     length 1.07536   
     axis -90 7.62852e-016 20   XYZ
    dof rx
    limits (-90.0 20.0)
  end
  begin
     id 6 
     name rhipjoint
     direction -0.700219 -0.612087 0.367481   
     length 2.54621  
     axis 0 0 0  XYZ 
  end
  begin
     id 7 
     name rfemur
     direction -0.34202 -0.939693 0   
     length 6.55353   
     axis 0 0 -20   XYZ
    dof rx ry rz
    limits (-160.0 20.0)
           (-70.0 70.0)
           (-70.0 60.0)
  end
  begin
     id 8 
     name rtibia
     direction -0.34202 -0.939693 0   
     length 6.8736   
     axis 0 0 -20   XYZ
    dof rx
    limits (-10.0 170.0)
 end
 begin
     id 9 
     name rfoot
     direction -0.0679995 -0.186827 0.980037   
     length 2.1218  
     axis -90 -7.62852e-016 -20   XYZ
    dof rx rz
    limits (-45.0 90.0)
           (-20.0 70.0)
  end
  begin
     id 10 
     name rtoes
     direction -1.53589e-011 -4.21772e-011 1   
     length 1.06864   
     axis -90 -7.62852e-016 -20   XYZ
    dof rx
    limits (-90.0 20.0)
  end
  begin
     id 11 
     name lowerback
     direction -0.0416607 0.996347 -0.0745409   
     length 2.12205   
     axis 0 0 0   XYZ
    dof rx ry rz
    limits (-20.0 45.0)
           (-30.0 30.0)
           (-30.0 30.0)
  end
  begin
     id 12 
     name upperback
     direction -0.000153993 0.999276 -0.0380568   
     length 2.12759   
     axis 0 0 0   XYZ
    dof rx ry rz
    limits (-20.0 45.0)
           (-30.0 30.0)
           (-30.0 30.0)
  end
  begin
     id 13 
     name thorax
     direction 0.0187671 0.999821 -0.00241421   
     length 2.13704   
     axis 0 0 0   XYZ
    dof rx ry rz
    limits (-20.0 45.0)
           (-30.0 30.0)
           (-30.0 30.0)
  end
  begin
     id 14 
     name lowerneck
     direction 0.0268157 0.964865 0.261374   
     length 1.65253   
     axis 0 0 0   XYZ
    dof rx ry rz
    limits (-20.0 45.0)
           (-30.0 30.0)
           (-30.0 30.0)
  end
  begin
     id 15 
     name upperneck
     direction 0.00263774 0.939908 -0.341418   
     length 1.72375   
     axis 0 0 0   XYZ
    dof rx ry rz
    limits (-20.0 45.0)
           (-30.0 30.0)
           (-30.0 30.0)
  end
  begin
     id 16
     name head
     direction -0.00526001 0.989001 -0.147818  
     length 1.74878  
     axis 0 0 0   XYZ
    dof rx ry rz
    limits (-20.0 45.0)
           (-30.0 30.0)
           (-30.0 30.0)
  end
  begin
     id 17 
     name lclavicle
     direction 0.881214 0.461162 -0.103884  
     length 3.25108  
     axis 0 0 0   XYZ
    dof ry rz
    limits (-20.0 10.0)
           (0.0 20.0)
  end
  begin
     id 18 
     name lhumerus
     direction 1 -4.4899e-011 3.38092e-027   
     length 4.87408   
     axis 180 -30 -90   XYZ
    dof rx ry rz
    limits (-60.0 90.0)
           (-90.0 90.0)
           (-90.0 90.0)
  end
  begin
     id 19
     name lradius
     direction 1 -4.48931e-011 9.96288e-027   
     length 2.76729   
     axis 180 -30 -90   XYZ
    dof rx
    limits (-10.0 170.0)
  end
  begin
     id 20
     name lwrist
     direction 1 -4.4896e-011 1.50617e-026   
     length 1.38364   
     axis -9.31234e-015 90 90   XYZ
    dof ry
    limits (-180.0 0.0)
 end
  begin
     id 21 
     name lhand
     direction 1 -4.49038e-011 3.01286e-026   
     length 0.98922   
     axis -1.92217e-014 90 90   XYZ
    dof rx rz
    limits (-90.0 90.0)
           (-45.0 45.0)
  end
  begin
     id 22 
     name lfingers
     direction 1 -4.49051e-011 6.02588e-026   
     length 0.797535   
     axis -3.84436e-014 90 90   XYZ
    dof rx
    limits (0.0 90.0)
  end
  begin
     id 23
     name lthumb
     direction 0.707107 -6.34901e-011 0.707107   
     length 1.14511   
     axis -90 45 2.19363e-014   XYZ
    dof rx rz
    limits (-45.0 45.0)
           (-45.0 45.0)
  end
  begin
     id 24 
     name rclavicle
     direction -0.893894 0.441652 -0.0767889   
     length 3.29361  
     axis 0 0 0   XYZ 
    dof ry rz
    limits (-10.0 20.0)
           (-20.0 0.0)
  end
  begin
     id 25 
     name rhumerus
     direction -1 -4.48945e-011 8.0491e-028  
     length 4.71404   
     axis 180 30 90   XYZ
    dof rx ry rz
    limits (-90.0 60.0)
           (-90.0 90.0)
           (-90.0 90.0)
  end
  begin
     id 26 
     name rradius
     direction -1 -4.48986e-011 9.27795e-027   
     length 2.83468   
     axis 180 30 90   XYZ
    dof rx
    limits (-10.0 170.0)
  end
  begin
     id 27 
     name rwrist
     direction -1 -4.49029e-011 1.5064e-026   
     length 1.41734   
     axis -9.31234e-015 -90 -90   XYZ
    dof ry
    limits (-180.0 0.0)
  end
  begin
     id 28
     name rhand
     direction -1 -4.48857e-011 3.01165e-026   
     length 0.868195   
     axis -1.92217e-014 -90 -90   XYZ
    dof rx rz
    limits (-90.0 90.0)
           (-45.0 45.0)
  end
  begin
     id 29
     name rfingers
     direction -1 -4.49048e-011 6.02585e-026   
     length 0.699961   
     axis -3.84436e-014 -90 -90   XYZ
    dof rx
    limits (0.0 90.0)
  end
  begin
     id 30
     name rthumb
     direction -0.707107 -6.34854e-011 0.707107   
     length 1.00501   
     axis -90 -45 -2.19363e-014   XYZ
    dof rx rz
    limits (-45.0 45.0)
           (-45.0 45.0)
  end
:hierarchy
  begin
    root lhipjoint rhipjoint lowerback
    lhipjoint lfemur
    lfemur ltibia
    ltibia lfoot
    lfoot ltoes
    rhipjoint rfemur
    rfemur rtibia
    rtibia rfoot
    rfoot rtoes
    lowerback upperback
    upperback thorax
    thorax lowerneck lclavicle rclavicle
    lowerneck upperneck
    upperneck head
    lclavicle lhumerus
    lhumerus lradius
    lradius lwrist
    lwrist lhand lthumb
    lhand lfingers
    rclavicle rhumerus
    rhumerus rradius
    rradius rwrist
    rwrist rhand rthumb
    rhand rfingers
  end

#!OML:ASF H:\ManfredObstacles\Project 1\Capture day 2\Session 1\male.ASF
:FULLY-SPECIFIED
:DEGREES
174
root 2.24909 16.247 -33.8978 -169.121 -4.56101 179.401
lowerback -6.37542 4.25559 -3.53371
upperback 2.29041 6.02775 -1.12861
thorax 5.71411 2.85423 1.45662
lowerneck -44.7967 -4.8405 -3.62688
upperneck 39.4466 -7.37704 2.71719
head 24.8606 -2.86728 -0.298856
rclavicle 7.67806e-014 -8.44835e-015
rhumerus -44.9982 28.0661 -101.106
rradius 106.806
rwrist 4.64652
rhand -8.87271 1.97902
rfingers 7.12502
rthumb 17.069 -27.2911
lclavicle 7.67806e-014 -8.44835e-015
lhumerus -55.2869 -26.5116 94.172
lradius 115.271
lwrist -19.8863
lhand -13.0528 3.21373
lfingers 7.12502
lthumb 13.0423 32.786
rfemur 4.12386 -0.605128 25.1582
rtibia 41.6289
rfoot 27.9778 -15.8677
rtoes -16.6372
lfemur -30.8681 -5.86164 -20.4269
ltibia 29.2539
lfoot 9.84316 7.77097
ltoes -6.17772
175
root 2.2319 16.1491 -34.2159 -169.718 -4.67217 179.361
lowerback -5.91463 4.16891 -3.3151
upperback 2.58513 5.87728 -1.19175
thorax 5.79683 2.78178 1.2319
lowerneck -45.0146 -4.78796 -3.52008
upperneck 39.349 -7.33938 2.74263
head 24.8197 -2.82253 -0.285786
rclavicle 1.88845e-015 3.37934e-015
rhumerus -45.1654 26.9122 -100.989
rradius 106.086
rwrist 4.6408
rhand -9.10102 1.60208
rfingers 7.12502
rthumb 16.8492 -27.6869
lclavicle 1.88845e-015 3.37934e-015
lhumerus -54.07 -27.0416 94.1584
lradius 114.811
lwrist -19.7724
lhand -13.1818 3.37307
lfingers 7.12502
lthumb 12.9179 32.9532
rfemur 3.38028 -1.20987 24.7684
rtibia 45.152
rfoot 26.6969 -16.4505
rtoes -16.6398
lfemur -29.6468 -6.07303 -20.6933
ltibia 30.8157
lfoot 8.28788 9.44009
ltoes -2.54076
176
root 2.2148 16.0524 -34.5338 -170.305 -4.74195 179.206
lowerback -5.45498 4.03507 -3.25973
upperback 2.89202 5.67449 -1.26316
thorax 5.87843 2.67587 1.08432
lowerneck -45.2438 -4.66959 -3.34521
upperneck 39.234 -7.24006 2.75474
head 24.7575 -2.74853 -0.270743
rclavicle -8.06569e-014 7.55382e-015
rhumerus -45.3268 25.6937 -100.832
rradius 105.18
rwrist 4.76475
rhand -9.32099 1.09282
rfingers 7.12502
rthumb 16.6374 -28.2141
lclavicle -8.06569e-014 7.55382e-015
lhumerus -52.7108 -27.4888 94.156
lradius 114.214
lwrist -19.6307
lhand -13.2551 3.49142
lfingers 7.12502
lthumb 12.8472 33.076
rfemur 2.53625 -1.82302 24.1871
rtibia 48.6763
rfoot 25.3298 -16.9063
rtoes -16.6778
lfemur -28.3136 -6.37039 -21.0598
ltibia 32.2601
lfoot 6.74785 11.3298
ltoes -0.235501
177
root 2.19846 15.9607 -34.8509 -170.83 -4.76046 178.901
lowerback -5.0022 3.81995 -3.45692
upperback 3.1649 5.37767 -1.33741
thorax 5.90771 2.51324 1.0639
lowerneck -45.4151 -4.43681 -3.06772
upperneck 39.1088 -7.0358 2.74278
head 24.66 -2.63066 -0.251714
rclavicle -3.60794e-014 2.50469e-014
rhumerus -45.5436 24.521 -100.689
rradius 104.081
rwrist 5.0279
rhand -9.55688 0.46557
rfingers 7.12502
rthumb 16.4103 -28.8603
lclavicle -3.60794e-014 2.50469e-014
lhumerus -51.2741 -27.7415 94.1689
lradius 113.486
lwrist -19.4608
lhand -13.2557 3.55934
lfingers 7.12502
lthumb 12.8467 33.144
rfemur 1.52795 -2.42273 23.3877
rtibia 52.1853
rfoot 23.9007 -17.2401
rtoes -16.7198
lfemur -26.9123 -6.66787 -21.5865
ltibia 33.4889
lfoot 5.11305 13.111
ltoes 0.231973
178
root 2.18432 15.8755 -35.167 -171.285 -4.68822 178.403
lowerback -4.53498 3.51899 -3.99692
upperback 3.37528 4.98234 -1.42112
thorax 5.84045 2.28868 1.21261
lowerneck -45.5091 -4.0646 -2.66894
upperneck 38.9901 -6.70362 2.69587
head 24.5368 -2.46109 -0.231507
rclavicle -1.90833e-014 8.54774e-015
rhumerus -45.876 23.4541 -100.607
rradius 102.821
rwrist 5.3612
rhand -9.80207 -0.289755
rfingers 7.12502
rthumb 16.1742 -29.6349
lclavicle -1.90833e-014 8.54774e-015
lhumerus -49.8117 -27.7436 94.2031
lradius 112.619
lwrist -19.2822
lhand -13.2144 3.58763
lfingers 7.12502
lthumb 12.8865 33.1698
rfemur 0.336138 -2.95729 22.3424
rtibia 55.675
rfoot 22.4649 -17.417
rtoes -16.9211
lfemur -25.4246 -6.87895 -22.327
ltibia 34.431
lfoot 3.46134 14.7451
ltoes -0.308752
179
root 2.17367 15.7983 -35.4807 -171.658 -4.51507 177.701
lowerback -4.06174 3.17813 -4.84687
upperback 3.5335 4.54375 -1.55953
thorax 5.70531 2.03026 1.47433
lowerneck -45.5591 -3.59632 -2.1522
upperneck 38.8725 -6.31536 2.63101
head 24.3987 -2.25901 -0.222896
rclavicle 1.08835e-014 2.60408e-014
rhumerus -46.271 22.3988 -100.563
rradius 101.424
rwrist 5.77762
rhand -10.0773 -1.11596
rfingers 7.12502
rthumb 15.9092 -30.4825
lclavicle 1.08835e-014 2.60408e-014
lhumerus -48.2767 -27.6467 94.2136
lradius 111.615
lwrist -19.053
lhand -13.13 3.60335
lfingers 7.12502
lthumb 12.9679 33.1804
rfemur -1.07294 -3.4051 21.0636
rtibia 59.1379
rfoot 21.0599 -17.4496
rtoes -17.1389
lfemur -23.8706 -6.95003 -23.287
ltibia 35.0631
lfoot 2.03177 16.1836
ltoes -1.31384
180
root 2.16771 15.7292 -35.7899 -171.954 -4.24658 176.815
lowerback -3.59163 2.832 -5.96858
upperback 3.65547 4.09999 -1.75323
thorax 5.53255 1.75742 1.83285
lowerneck -45.5786 -3.08205 -1.57146
upperneck 38.7371 -5.90981 2.56734
head 24.2405 -2.04137 -0.218413
rclavicle -2.55438e-014 1.05356e-014
rhumerus -46.7078 21.3157 -100.498
rradius 99.9554
rwrist 6.22167
rhand -10.3898 -1.95035
rfingers 7.12502
rthumb 15.6083 -31.3406
lclavicle -2.55438e-014 1.05356e-014
lhumerus -46.6618 -27.5392 94.2176
lradius 110.491
lwrist -18.7842
lhand -13.0486 3.62597
lfingers 7.12502
lthumb 13.0464 33.198
rfemur -2.70772 -3.74832 19.5939
rtibia 62.553
rfoot 19.6483 -17.4223
rtoes -17.3396
lfemur -22.2668 -6.82651 -24.4343
ltibia 35.4023
lfoot 0.900509 17.3166
ltoes -2.46358
181
root 2.16669 15.668 -36.0928 -172.184 -3.901 175.818
lowerback -3.24106 2.4142 -7.33633
upperback 3.7955 3.56728 -1.9671
thorax 5.4596 1.4232 2.31169
lowerneck -45.5563 -2.40584 -0.77777
upperneck 38.5647 -5.38233 2.43397
head 24.0307 -1.76096 -0.24899
rclavicle 9.24349e-015 1.63003e-014
rhumerus -47.146 20.4524 -100.467
rradius 98.4582
rwrist 6.60093
rhand -10.7851 -2.73572
rfingers 7.12502
rthumb 15.2275 -32.1553
lclavicle 9.24349e-015 1.63003e-014
lhumerus -44.9289 -27.2591 94.0977
lradius 109.313
lwrist -18.5176
lhand -12.9964 3.68455
lfingers 7.12502
lthumb 13.0966 33.2533
rfemur -4.56498 -3.99257 18.0361
rtibia 65.8736
rfoot 18.2531 -17.3674
rtoes -17.5088
lfemur -20.6548 -6.49539 -25.6727
ltibia 35.5091
lfoot 0.0660782 18.1172
ltoes -3.52878
182
root 2.16941 15.6161 -36.3896 -172.346 -3.52954 174.819
lowerback -2.87676 2.13103 -8.58399
upperback 3.89648 3.19011 -2.26006
thorax 5.35307 1.17137 2.65341
lowerneck -45.5024 -1.95085 -0.219917
upperneck 38.3636 -5.10757 2.4737
head 23.829 -1.57485 -0.223154
rclavicle 3.98563e-014 -5.725e-014
rhumerus -47.6419 19.2111 -100.296
rradius 97.0549
rwrist 6.96083
rhand -11.2356 -3.38376
rfingers 7.12502
rthumb 14.7935 -32.8358
lclavicle 3.98563e-014 -5.725e-014
lhumerus -43.1685 -27.4198 94.0309
lradius 108.118
lwrist -18.2754
lhand -12.9681 3.78333
lfingers 7.12502
lthumb 13.1239 33.3503
rfemur -6.63703 -4.16303 16.5257
rtibia 69.0349
rfoot 16.8456 -17.3514
rtoes -17.7149
lfemur -19.0987 -6.04072 -26.8656
ltibia 35.4688
lfoot -0.535648 18.6191
ltoes -4.54203
183
root 2.17466 15.5734 -36.6811 -172.439 -3.19202 173.943
lowerback -2.55356 1.84073 -9.70567
upperback 3.97361 2.7888 -2.5209
thorax 5.26457 0.91243 2.96066
lowerneck -45.4687 -1.5214 0.292791
upperneck 38.1779 -4.85307 2.53569
head 23.6533 -1.39889 -0.185345
rclavicle -2.29596e-014 2.62396e-014
rhumerus -48.2378 18.0256 -100.049
rradius 95.7905
rwrist 7.24349
rhand -11.764 -3.82595
rfingers 7.12502
rthumb 14.2844 -33.3146
lclavicle -2.29596e-014 2.62396e-014
lhumerus -41.4323 -27.6375 93.9561
lradius 107.014
lwrist -18.1355
lhand -12.96 3.89808
lfingers 7.12502
lthumb 13.1317 33.4646
rfemur -8.88752 -4.29767 15.2208
rtibia 71.9596
rfoot 15.4154 -17.404
rtoes -17.8901
lfemur -17.6489 -5.57041 -27.8692
ltibia 35.3708
lfoot -0.959526 18.8859
ltoes -5.61208
184
root 2.18053 15.5402 -36.9686 -172.437 -2.92592 173.316
lowerback -2.29366 1.55196 -10.5074
upperback 4.02802 2.37913 -2.7254
thorax 5.20866 0.664595 3.154
lowerneck -45.4943 -1.15313 0.717967
upperneck 37.9973 -4.63009 2.61184
head 23.5028 -1.24297 -0.136231
rclavicle 2.37548e-014 -4.17448e-014
rhumerus -48.922 16.8701 -99.6924
rradius 94.7326
rwrist 7.38847
rhand -12.2896 -4.02517
rfingers 7.12502
rthumb 13.778 -33.5489
lclavicle 2.37548e-014 -4.17448e-014
lhumerus -39.7324 -27.9609 93.8711
lradius 106.077
lwrist -18.1285
lhand -12.9412 3.98363
lfingers 7.12502
lthumb 13.1499 33.549
rfemur -11.3268 -4.4151 14.277
rtibia 74.6409
rfoot 13.9755 -17.5225
rtoes -18.0829
lfemur -16.3514 -5.17033 -28.5542
ltibia 35.2655
lfoot -1.26931 18.9927
ltoes -6.81836
185
root 2.18489 15.517 -37.2533 -172.343 -2.77244 172.981
lowerback -2.07659 1.24032 -10.9248
upperback 4.05755 1.93315 -2.83898
thorax 5.16925 0.419888 3.23261
lowerneck -45.5862 -0.855692 1.00821
upperneck 37.842 -4.41568 2.69651
head 23.3937 -1.10761 -0.064514
rclavicle 3.17062e-014 -5.96354e-015
rhumerus -49.7154 15.8114 -99.2013
rradius 93.9411
rwrist 7.39465
rhand -12.7423 -3.96571
rfingers 7.12502
rthumb 13.3416 -33.5186
lclavicle 3.17062e-014 -5.96354e-015
lhumerus -38.0957 -28.3316 93.798
lradius 105.35
lwrist -18.3134
lhand -12.8871 3.98142
lfingers 7.12502
lthumb 13.202 33.5434
rfemur -13.893 -4.55215 13.7395
rtibia 76.9612
rfoot 12.558 -17.708
rtoes -18.2729
lfemur -15.2486 -4.92503 -28.8899
ltibia 35.281
lfoot -1.51515 19.0473
ltoes -8.02218
186
root 2.18953 15.4828 -37.5362 -172.295 -2.6858 172.534
lowerback -1.46953 1.04093 -11.4267
upperback 3.91118 1.56729 -2.95376
thorax 4.71001 0.240382 3.35637
lowerneck -45.6471 -0.866123 0.817142
upperneck 37.8831 -4.4988 3.06248
head 23.4736 -1.10895 0.145502
rclavicle 7.45443e-015 -1.23246e-014
rhumerus -50.8074 14.4 -98.4363
rradius 93.0951
rwrist 7.72062
rhand -13.2955 -3.96796
rfingers 7.12502
rthumb 12.8084 -33.555
lclavicle 7.45443e-015 -1.23246e-014
lhumerus -36.6547 -29.0343 93.9774
lradius 104.499
lwrist -18.3426
lhand -12.8675 4.08196
lfingers 7.12502
lthumb 13.2209 33.6427
rfemur -16.3365 -4.79045 13.066
rtibia 79.0778
rfoot 11.4173 -17.7578
rtoes -18.3538
lfemur -14.0796 -4.71096 -29.3187
ltibia 35.3186
lfoot -1.88641 19.0807
ltoes -9.28469
